<?xml version="1.0" encoding="utf-8"?>
<!-- Generator: Adobe Illustrator 27.3.1, SVG Export Plug-In . SVG Version: 6.00 Build 0)  -->
<svg version="1.1" id="Layer_1" xmlns="http://www.w3.org/2000/svg" xmlns:xlink="http://www.w3.org/1999/xlink" x="0px" y="0px"
	 viewBox="0 0 801.67 279.33" style="enable-background:new 0 0 801.67 279.33;" xml:space="preserve">
<style type="text/css">
	.st0{fill:#FFFFFF;}
	.st1{fill:#7BAFDE;}
</style>
<g>
	<g>
		<g>
			<g>
				<path class="st0" d="M44.61,139.23l-15.7,41.28c-3.45,8.89-9.42,13.25-17.91,13.08v3.66h30.73v-3.66
					c-9.44,0-12.41-4.36-8.91-13.08l8.99-23.48h2.8v-3.5h-1.38c0.2-0.49,0.65-1.68,1.38-3.57V139.23z"/>
			</g>
			<g>
				<path class="st0" d="M532.12,177.98h-32.4c-6.56,0-10.4-1.9-11.51-5.71c-0.53-1.91-0.16-3.97,1.11-6.2
					c1.11-2.22,2.73-4.05,4.84-5.48v0.32c5.61,2.86,12.18,4.29,19.7,4.29c10.16-0.05,18.68-2.73,25.57-8.02
					c7.19-5.93,10.79-12.87,10.79-20.81c0-6.88-1.93-12.54-5.79-16.99c-3.44-4.23-8.74-7.3-15.88-9.21
					c1.64-2.12,3.36-3.36,5.16-3.73c2.01-0.58,3.73-0.48,5.16,0.32c1.64,0.79,3.57,2.4,5.8,4.84c1.53,1.69,3.15,2.94,4.84,3.73
					c1.64,0.79,3.47,0.98,5.48,0.56c2.01-0.43,3.43-1.48,4.25-3.18c0.82-1.69,0.99-3.44,0.51-5.24c-0.63-2.65-2.78-4.76-6.43-6.35
					c-2.43-0.96-5.4-1.48-8.89-1.59c-7.84,0-14.69,3.23-20.57,9.69c-3.92-0.74-6.93-1.09-9.05-1.04c-10.75,0-19.43,2.78-26.05,8.34
					c-6.83,5.51-10.24,12.39-10.24,20.65c0,4.55,1.27,8.79,3.81,12.7c2.49,3.92,5.72,7.12,9.69,9.61
					c-9.69,4.92-15.27,10.96-16.76,18.11c-0.42,2.06-0.27,4.42,0.44,7.06c0.72,2.65,2.24,5.19,4.57,7.63
					c-4.61,4.55-6.96,9.95-7.07,16.2c-0.11,3.81,0.69,7.38,2.38,10.72c1.7,3.33,4.45,6.03,8.26,8.09c7.52,4.13,17.42,6.09,29.7,5.88
					c12.39-0.21,23.08-2.7,32.08-7.46c11.59-6.15,17.39-14.22,17.39-24.22C562.9,185.82,552.61,177.98,532.12,177.98z
					 M502.26,119.38c2.86-5.4,6.86-8.07,11.99-8.02c3.97,0.05,7.18,1.3,9.61,3.73c4.45,4.66,6.7,11.75,6.75,21.28
					c0,7.42-1.67,13.48-5,18.19c-3.07,4.92-6.86,7.38-11.36,7.38c-4.71,0-8.63-2.3-11.75-6.91c-3.02-4.49-4.53-10.4-4.53-17.7
					C497.97,130.34,499.4,124.36,502.26,119.38z M550.38,213.8c-1.27,2.01-2.93,3.78-5,5.32c-8.63,5.98-19.35,9.13-32.16,9.45
					c-12.7,0.31-21.99-1.41-27.87-5.17c-5.88-3.76-8.71-8.92-8.5-15.48c0.16-5.51,2.09-10.16,5.8-13.98c2.75,1.7,5.24,2.86,7.46,3.5
					c2.23,0.74,5.51,1.11,9.85,1.11h39.15c4.23,0,7.51,0.87,9.84,2.62c2.02,1.48,3.07,3.45,3.18,5.92
					C552.24,209.55,551.65,211.78,550.38,213.8z"/>
				<path class="st0" d="M625.74,176.24c-4.6,4.65-10.3,7.06-17.07,7.22c-7.84,0.21-14.37-3.31-19.62-10.56
					c-5.24-7.3-7.51-16.04-6.82-26.2h57.41c-0.53-11.76-4.13-21.15-10.8-28.19c-6.57-7.04-15.65-10.56-27.24-10.56
					c-11.65,0-21.17,4.15-28.59,12.46c-7.3,8.1-10.95,18.19-10.95,30.26c0,11.64,3.65,21.38,10.95,29.22
					c7.47,7.94,16.49,11.91,27.08,11.91c9.58,0,17.84-2.99,24.78-8.97c6.98-6.04,11.56-14.38,13.73-25.02h-2.54
					C633.79,165.44,630.35,171.58,625.74,176.24z M583.81,133.28c0.69-3.34,1.72-6.65,3.1-9.93c1.38-3.39,3.28-6.17,5.72-8.34
					c2.54-2.22,5.4-3.38,8.57-3.49c4.19-0.16,7.76,1.75,10.72,5.72c3.02,3.91,5.01,8.18,5.96,12.78c1.06,4.55,1.51,8.82,1.35,12.79
					h-36.77C582.67,139.68,583.13,136.51,583.81,133.28z"/>
				<path class="st0" d="M769.86,170.6v-35.1c-0.15-9-2.43-15.72-6.82-20.17c-4.5-4.6-10.72-6.91-18.67-6.91
					c-10.48-0.05-18.55,4.53-24.21,13.74c-1.01-2.54-2.52-4.82-4.53-6.83c-4.45-4.6-10.64-6.91-18.58-6.91
					c-9.32,0-16.76,3.58-22.32,10.72c-0.21-5.87-1-9.45-2.38-10.72l-27.95,4.45v2.78c7.36-1.27,11.04,2.65,11.04,11.75v43.2
					c0,11.12-3.68,16.75-11.04,16.91v2.7h41.53v-2.7c-7.46-0.16-11.2-5.79-11.2-16.91v-37.72c-0.05-4.61,1.41-8.73,4.37-12.39
					c2.97-3.54,6.25-5.32,9.85-5.32c3.92,0,7.28,1.72,10.08,5.16c2.91,3.45,4.34,7.63,4.29,12.55v37.72
					c0.05,11.12-3.68,16.75-11.2,16.91v2.7h41.22v-2.7c-7.36-0.16-11.04-5.79-11.04-16.91v-37.72c0-4.92,1.35-9.05,4.05-12.39
					c2.96-3.54,6.3-5.32,10-5.32c3.97,0,7.39,1.78,10.25,5.32c2.64,3.34,3.97,7.47,3.97,12.39v37.72c0,11.12-3.73,16.75-11.2,16.91
					v2.7h41.53v-2.7C773.6,187.35,769.92,181.72,769.86,170.6z"/>
			</g>
		</g>
		<path class="st1" d="M62.72,102.56c-9.48,24.81-15.51,40.61-18.11,47.4v3.57h38.68C81.79,149.98,74.93,132.99,62.72,102.56z
			 M320.13,153.7c-4.11,1.94-7.13,4.75-9.08,8.41c-1.94,3.61-2.88,7.72-2.83,12.32c0.17,4.56,1.39,8.58,3.67,12.08
			c2.38,3.5,5.85,5.22,10.41,5.16c5.55,0,9.8-2.72,12.74-8.16c3.05-5.49,4.58-12.46,4.58-20.9v-21.57
			C336.51,144.54,330.01,148.76,320.13,153.7z M320.13,153.7c-4.11,1.94-7.13,4.75-9.08,8.41c-1.94,3.61-2.88,7.72-2.83,12.32
			c0.17,4.56,1.39,8.58,3.67,12.08c2.38,3.5,5.85,5.22,10.41,5.16c5.55,0,9.8-2.72,12.74-8.16c3.05-5.49,4.58-12.46,4.58-20.9
			v-21.57C336.51,144.54,330.01,148.76,320.13,153.7z M44.61,13.95v125.28l24.02-63.15h5.66l43.39,104.43
			c3.66,8.5,9.49,12.86,17.49,13.08v3.66h-49.8v-3.66c9.44,0.11,12.38-4.25,8.83-13.08l-9.5-23.48H44.61v111.23h415.6V13.95H44.61z
			 M283.32,197.25h-43.55v-2.83c7.83-0.16,11.74-6.08,11.74-17.74v-39.55c0-5.17-1.39-9.5-4.16-13c-3-3.71-6.58-5.58-10.75-5.58
			c-3.88,0-7.38,1.87-10.49,5.58c-2.83,3.5-4.25,7.83-4.25,13v39.55c0,11.66,3.86,17.58,11.58,17.74v2.83h-43.22v-2.83
			c7.88-0.16,11.79-6.08,11.74-17.74v-39.55c0.05-5.17-1.45-9.55-4.5-13.16c-2.94-3.61-6.47-5.42-10.57-5.42
			c-3.78,0-7.22,1.87-10.33,5.58c-3.11,3.84-4.64,8.17-4.58,13v39.55c0,11.66,3.91,17.58,11.74,17.74v2.83h-43.55v-2.83
			c7.71-0.16,11.57-6.08,11.57-17.74v-45.3c0-9.55-3.86-13.66-11.57-12.33v-2.91l29.31-4.66c1.44,1.33,2.28,5.08,2.5,11.24
			c5.83-7.5,13.63-11.24,23.4-11.24c8.33,0,14.82,2.41,19.49,7.24c2.11,2.11,3.69,4.5,4.74,7.16c5.94-9.66,14.41-14.46,25.4-14.4
			c8.33,0,14.86,2.41,19.57,7.24c4.61,4.66,7,11.72,7.17,21.15v36.81c0.05,11.66,3.91,17.58,11.57,17.74V197.25z M358.02,198.59
			c-11.21,0-17.15-4.14-17.82-12.41c-2.16,3.49-5.61,6.58-10.32,9.24c-4.56,2.55-10.05,3.8-16.49,3.75
			c-7.17-0.28-13.16-2.5-17.99-6.66c-4.72-4.22-7.08-9.91-7.08-17.08c0-11.54,6.44-19.54,19.32-23.98
			c21.49-7.55,32.15-16.07,31.98-25.57c-0.11-7.21-5.69-10.82-16.74-10.82c-4.5,0-7.72,0.91-9.66,2.75
			c-0.61,0.55-1.83,3.1-3.66,7.66c-0.95,2.33-2.09,4.19-3.42,5.58c-1.22,1.39-2.69,2.24-4.41,2.58c-1.84,0.44-3.67,0.05-5.5-1.17
			c-1.55-1.16-2.5-2.83-2.83-4.99c-0.28-3.11,1.39-6.14,5-9.08c5.94-4.83,14.1-7.3,24.48-7.41c17.6,0,28.62,4.44,33.06,13.32
			c2.33,4.55,3.47,10.55,3.42,17.99v41.81c0,5.16,1.38,8.16,4.16,8.99c3.16,0.67,6.97-0.44,11.41-3.33l1.33,2.58
			C370.04,196.5,363.96,198.59,358.02,198.59z M450.67,129.01c-1.19,1.47-2.91,2.2-5.16,2.2s-4.11-0.57-5.58-1.7
			c-1.47-1.14-2.76-2.93-3.87-5.38c-1.45-2.99-2.95-4.99-4.5-5.99c-1.95-1.5-4.11-2.06-6.5-1.67c-3.38,0.39-6.77,3.2-10.16,8.41
			c-3.27,5.22-4.91,11.25-4.91,18.08v33.56c0,11.77,3.8,17.74,11.41,17.9v2.83h-42.64v-2.83c7.49-0.33,11.24-6.3,11.24-17.9v-44.97
			c0-9.55-3.75-13.74-11.24-12.58v-2.83l28.98-4.66c1.5,1.88,2.25,5.85,2.25,11.9c4.94-7.93,12.08-11.9,21.4-11.9
			c5.67,0.05,10.75,1.36,15.24,3.91c3.89,2.22,5.83,5.08,5.83,8.58C452.46,125.86,451.86,127.54,450.67,129.01z M320.13,153.7
			c-4.11,1.94-7.13,4.75-9.08,8.41c-1.94,3.61-2.88,7.72-2.83,12.32c0.17,4.56,1.39,8.58,3.67,12.08c2.38,3.5,5.85,5.22,10.41,5.16
			c5.55,0,9.8-2.72,12.74-8.16c3.05-5.49,4.58-12.46,4.58-20.9v-21.57C336.51,144.54,330.01,148.76,320.13,153.7z M62.72,102.56
			c-9.48,24.81-15.51,40.61-18.11,47.4v3.57h38.68C81.79,149.98,74.93,132.99,62.72,102.56z M62.72,102.56
			c-9.48,24.81-15.51,40.61-18.11,47.4v3.57h38.68C81.79,149.98,74.93,132.99,62.72,102.56z"/>
		<g>
			<defs>
				<rect id="SVGID_1_" x="44.61" y="13.95" width="415.6" height="254.31"/>
			</defs>
			<clipPath id="SVGID_00000138562258414212308220000010236027450342859150_">
				<use xlink:href="#SVGID_1_"  style="overflow:visible;"/>
			</clipPath>
		</g>
	</g>
</g>
</svg>
