<?xml version="1.0" encoding="utf-8"?>
<!-- Generator: Adobe Illustrator 27.3.1, SVG Export Plug-In . SVG Version: 6.00 Build 0)  -->
<svg version="1.1" id="Layer_1" xmlns="http://www.w3.org/2000/svg" xmlns:xlink="http://www.w3.org/1999/xlink" x="0px" y="0px"
	 viewBox="0 0 595.28 420.95" style="enable-background:new 0 0 595.28 420.95;" xml:space="preserve">
<style type="text/css">
	.st0{fill:#C7C6C5;}
	.st1{fill:#7BAFDE;}
	.st2{clip-path:url(#SVGID_00000156554493633027517980000014501233625507397776_);}
	.st3{fill:#010101;}
</style>
<g>
	<g>
		<g>
			<g>
				<g>
					<path class="st0" d="M74.29,76.08l43.39,104.43c3.66,8.49,9.49,12.85,17.49,13.07v3.66h-49.8v-3.66
						c9.44,0.11,12.38-4.25,8.83-13.07l-9.49-23.48H41.81l-8.99,23.48c-3.5,8.72-0.53,13.07,8.91,13.07v3.66H11v-3.66
						c8.49,0.17,14.46-4.19,17.91-13.07L68.63,76.08H74.29z M43.23,153.53h40.06c-1.5-3.55-8.36-20.54-20.57-50.97
						C50.61,134.27,44.12,151.26,43.23,153.53z"/>
					<path class="st0" d="M214.87,118.72c2.11,2.11,3.69,4.5,4.75,7.16c5.94-9.66,14.41-14.46,25.4-14.41
						c8.33,0,14.85,2.42,19.57,7.25c4.61,4.66,7,11.72,7.16,21.15v36.81c0.05,11.66,3.91,17.57,11.58,17.74v2.83h-43.55v-2.83
						c7.83-0.17,11.74-6.08,11.74-17.74v-39.56c0-5.16-1.39-9.49-4.16-12.99c-3-3.72-6.58-5.58-10.74-5.58
						c-3.89,0-7.38,1.86-10.49,5.58c-2.83,3.5-4.25,7.83-4.25,12.99v39.56c0,11.66,3.86,17.57,11.58,17.74v2.83h-43.22v-2.83
						c7.88-0.17,11.8-6.08,11.74-17.74v-39.56c0.05-5.16-1.44-9.55-4.5-13.16c-2.94-3.61-6.47-5.41-10.58-5.41
						c-3.78,0-7.22,1.86-10.33,5.58c-3.11,3.83-4.64,8.16-4.58,12.99v39.56c0,11.66,3.91,17.57,11.74,17.74v2.83h-43.55v-2.83
						c7.72-0.17,11.58-6.08,11.58-17.74v-45.3c0-9.55-3.86-13.66-11.58-12.33v-2.91l29.31-4.66c1.44,1.33,2.28,5.08,2.5,11.24
						c5.83-7.5,13.63-11.24,23.4-11.24C203.71,111.48,210.2,113.89,214.87,118.72z"/>
					<path class="st0" d="M355.94,124.3c2.33,4.55,3.47,10.55,3.41,17.99v41.81c0,5.16,1.39,8.16,4.16,8.99
						c3.16,0.67,6.97-0.44,11.41-3.33l1.33,2.58c-6.22,4.16-12.3,6.25-18.24,6.25c-11.22,0-17.16-4.14-17.82-12.41
						c-2.17,3.5-5.61,6.58-10.33,9.24c-4.55,2.55-10.05,3.8-16.49,3.75c-7.16-0.28-13.16-2.5-17.99-6.66
						c-4.72-4.22-7.08-9.91-7.08-17.07c0-11.55,6.44-19.54,19.32-23.98c21.49-7.55,32.15-16.07,31.98-25.57
						c-0.11-7.22-5.69-10.83-16.74-10.83c-4.5,0-7.72,0.92-9.66,2.75c-0.61,0.56-1.83,3.11-3.66,7.66
						c-0.94,2.33-2.08,4.19-3.41,5.58c-1.22,1.39-2.69,2.25-4.41,2.58c-1.83,0.45-3.66,0.06-5.5-1.17c-1.56-1.17-2.5-2.83-2.83-5
						c-0.28-3.11,1.39-6.13,5-9.08c5.94-4.83,14.1-7.3,24.48-7.41C340.48,110.98,351.5,115.42,355.94,124.3z M320.13,153.7
						c-4.11,1.94-7.13,4.75-9.08,8.41c-1.94,3.61-2.89,7.72-2.83,12.32c0.17,4.55,1.39,8.58,3.66,12.08
						c2.39,3.5,5.86,5.22,10.41,5.16c5.55,0,9.8-2.72,12.74-8.16c3.05-5.5,4.58-12.46,4.58-20.9v-21.57
						C336.51,144.54,330.01,148.76,320.13,153.7z"/>
					<path class="st0" d="M409.99,123.38c4.94-7.94,12.08-11.91,21.4-11.91c5.66,0.06,10.74,1.36,15.24,3.91
						c3.89,2.22,5.83,5.08,5.83,8.58c0,1.89-0.6,3.57-1.79,5.04c-1.19,1.47-2.91,2.21-5.16,2.21s-4.11-0.57-5.58-1.71
						c-1.47-1.14-2.76-2.93-3.87-5.37c-1.44-3-2.94-5-4.5-6c-1.94-1.5-4.11-2.05-6.5-1.67c-3.39,0.39-6.77,3.19-10.16,8.41
						c-3.28,5.22-4.91,11.24-4.91,18.07v33.56c0,11.77,3.8,17.74,11.41,17.91v2.83h-42.64v-2.83c7.5-0.33,11.24-6.3,11.24-17.91
						v-44.97c0-9.55-3.75-13.74-11.24-12.58v-2.83l28.98-4.66C409.24,113.36,409.99,117.33,409.99,123.38z"/>
				</g>
				<g>
					<path class="st0" d="M337.52,222.54c3.65,1.59,5.8,3.71,6.43,6.35c0.48,1.8,0.3,3.55-0.52,5.24c-0.82,1.69-2.24,2.75-4.25,3.18
						c-2.01,0.42-3.84,0.24-5.48-0.56c-1.69-0.79-3.31-2.04-4.84-3.73c-2.22-2.43-4.16-4.05-5.8-4.84c-1.43-0.79-3.15-0.9-5.16-0.32
						c-1.8,0.37-3.52,1.62-5.16,3.73c7.15,1.91,12.44,4.98,15.88,9.21c3.86,4.45,5.8,10.11,5.8,16.99c0,7.94-3.6,14.88-10.8,20.8
						c-6.88,5.29-15.4,7.97-25.57,8.02c-7.52,0-14.08-1.43-19.69-4.29v-0.32c-2.12,1.43-3.73,3.26-4.84,5.48
						c-1.27,2.22-1.64,4.29-1.11,6.19c1.11,3.81,4.95,5.72,11.51,5.72h32.4c20.49,0,30.78,7.84,30.89,23.5
						c0,10.01-5.8,18.08-17.39,24.22c-9,4.76-19.69,7.25-32.08,7.46c-12.28,0.21-22.18-1.75-29.7-5.88
						c-3.81-2.06-6.56-4.76-8.26-8.1c-1.69-3.34-2.49-6.91-2.38-10.72c0.11-6.25,2.46-11.65,7.07-16.2
						c-2.33-2.43-3.85-4.98-4.57-7.62c-0.71-2.65-0.86-5-0.44-7.07c1.48-7.15,7.07-13.18,16.76-18.1c-3.97-2.49-7.2-5.69-9.69-9.61
						c-2.54-3.92-3.81-8.15-3.81-12.7c0-8.26,3.41-15.14,10.24-20.65c6.62-5.56,15.3-8.34,26.05-8.34c2.12-0.05,5.13,0.29,9.05,1.03
						c5.88-6.46,12.73-9.69,20.57-9.69C332.12,221.06,335.08,221.59,337.52,222.54z M261.05,329.34c-0.21,6.56,2.62,11.72,8.5,15.48
						c5.88,3.76,15.17,5.48,27.87,5.16c12.81-0.32,23.53-3.47,32.16-9.45c2.06-1.54,3.73-3.31,5-5.32c1.27-2.01,1.85-4.25,1.75-6.71
						c-0.11-2.46-1.17-4.43-3.18-5.92c-2.33-1.75-5.61-2.62-9.85-2.62h-39.15c-4.34,0-7.62-0.37-9.85-1.11
						c-2.22-0.64-4.71-1.8-7.46-3.49C263.14,319.18,261.21,323.84,261.05,329.34z M286.46,240.8c-2.86,4.98-4.29,10.96-4.29,17.95
						c0,7.31,1.51,13.21,4.53,17.71c3.12,4.61,7.04,6.91,11.75,6.91c4.5,0,8.28-2.46,11.36-7.39c3.34-4.71,5-10.77,5-18.18
						c-0.05-9.53-2.3-16.62-6.75-21.28c-2.44-2.43-5.64-3.68-9.61-3.73C293.31,232.73,289.32,235.4,286.46,240.8z"/>
					<path class="st0" d="M413.03,239.93c6.67,7.04,10.27,16.44,10.8,28.19h-57.41c-0.69,10.16,1.59,18.9,6.83,26.2
						c5.24,7.25,11.78,10.77,19.61,10.56c6.78-0.16,12.47-2.57,17.07-7.23c4.61-4.66,8.05-10.8,10.32-18.42h2.54
						c-2.17,10.64-6.75,18.98-13.74,25.01c-6.94,5.98-15.19,8.97-24.77,8.97c-10.59,0-19.61-3.97-27.08-11.91
						c-7.31-7.83-10.96-17.58-10.96-29.22c0-12.07,3.65-22.15,10.96-30.25c7.41-8.31,16.94-12.47,28.59-12.47
						C397.39,229.37,406.47,232.89,413.03,239.93z M376.82,236.44c-2.44,2.17-4.34,4.95-5.72,8.34c-1.38,3.28-2.41,6.59-3.1,9.93
						c-0.69,3.23-1.14,6.41-1.35,9.53h36.77c0.16-3.97-0.29-8.23-1.35-12.78c-0.95-4.61-2.94-8.87-5.96-12.78
						c-2.97-3.97-6.54-5.88-10.72-5.72C382.22,233.05,379.37,234.21,376.82,236.44z"/>
					<path class="st0" d="M499.83,236.75c2.01,2.01,3.52,4.29,4.53,6.83c5.66-9.21,13.74-13.79,24.22-13.74
						c7.94,0,14.16,2.3,18.66,6.91c4.39,4.45,6.67,11.17,6.83,20.17v35.1c0.05,11.12,3.73,16.75,11.04,16.91v2.7h-41.53v-2.7
						c7.46-0.16,11.2-5.8,11.2-16.91V254.3c0-4.92-1.32-9.05-3.97-12.39c-2.86-3.55-6.27-5.32-10.24-5.32
						c-3.71,0-7.04,1.77-10.01,5.32c-2.7,3.34-4.05,7.46-4.05,12.39v37.72c0,11.12,3.68,16.75,11.04,16.91v2.7h-41.21v-2.7
						c7.52-0.16,11.25-5.8,11.2-16.91V254.3c0.05-4.92-1.38-9.1-4.29-12.55c-2.81-3.44-6.17-5.16-10.08-5.16
						c-3.6,0-6.88,1.77-9.85,5.32c-2.97,3.65-4.42,7.78-4.37,12.39v37.72c0,11.12,3.73,16.75,11.2,16.91v2.7H428.6v-2.7
						c7.36-0.16,11.04-5.8,11.04-16.91v-43.2c0-9.1-3.68-13.02-11.04-11.75v-2.78l27.95-4.45c1.38,1.27,2.17,4.84,2.38,10.72
						c5.56-7.15,13-10.72,22.31-10.72C489.19,229.85,495.38,232.15,499.83,236.75z"/>
				</g>
			</g>
			<rect x="44.61" y="13.95" class="st1" width="415.6" height="254.31"/>
			<g>
				<defs>
					<rect id="SVGID_1_" x="44.61" y="13.95" width="415.6" height="254.31"/>
				</defs>
				<clipPath id="SVGID_00000054973375580481305410000013457299861865664680_">
					<use xlink:href="#SVGID_1_"  style="overflow:visible;"/>
				</clipPath>
				<g style="clip-path:url(#SVGID_00000054973375580481305410000013457299861865664680_);">
					<path class="st3" d="M74.29,76.08l43.39,104.43c3.66,8.49,9.49,12.85,17.49,13.07v3.66h-49.8v-3.66
						c9.44,0.11,12.38-4.25,8.83-13.07l-9.49-23.48H41.81l-8.99,23.48c-3.5,8.72-0.53,13.07,8.91,13.07v3.66H11v-3.66
						c8.49,0.17,14.46-4.19,17.91-13.07L68.63,76.08H74.29z M43.23,153.53h40.06c-1.5-3.55-8.36-20.54-20.57-50.97
						C50.61,134.27,44.12,151.26,43.23,153.53z"/>
					<path class="st3" d="M214.87,118.72c2.11,2.11,3.69,4.5,4.75,7.16c5.94-9.66,14.41-14.46,25.4-14.41
						c8.33,0,14.85,2.42,19.57,7.25c4.61,4.66,7,11.72,7.16,21.15v36.81c0.05,11.66,3.91,17.57,11.58,17.74v2.83h-43.55v-2.83
						c7.83-0.17,11.74-6.08,11.74-17.74v-39.56c0-5.16-1.39-9.49-4.16-12.99c-3-3.72-6.58-5.58-10.74-5.58
						c-3.89,0-7.38,1.86-10.49,5.58c-2.83,3.5-4.25,7.83-4.25,12.99v39.56c0,11.66,3.86,17.57,11.58,17.74v2.83h-43.22v-2.83
						c7.88-0.17,11.8-6.08,11.74-17.74v-39.56c0.05-5.16-1.44-9.55-4.5-13.16c-2.94-3.61-6.47-5.41-10.58-5.41
						c-3.78,0-7.22,1.86-10.33,5.58c-3.11,3.83-4.64,8.16-4.58,12.99v39.56c0,11.66,3.91,17.57,11.74,17.74v2.83h-43.55v-2.83
						c7.72-0.17,11.58-6.08,11.58-17.74v-45.3c0-9.55-3.86-13.66-11.58-12.33v-2.91l29.31-4.66c1.44,1.33,2.28,5.08,2.5,11.24
						c5.83-7.5,13.63-11.24,23.4-11.24C203.71,111.48,210.2,113.89,214.87,118.72z"/>
					<path class="st3" d="M355.94,124.3c2.33,4.55,3.47,10.55,3.41,17.99v41.81c0,5.16,1.39,8.16,4.16,8.99
						c3.16,0.67,6.97-0.44,11.41-3.33l1.33,2.58c-6.22,4.16-12.3,6.25-18.24,6.25c-11.22,0-17.16-4.14-17.82-12.41
						c-2.17,3.5-5.61,6.58-10.33,9.24c-4.55,2.55-10.05,3.8-16.49,3.75c-7.16-0.28-13.16-2.5-17.99-6.66
						c-4.72-4.22-7.08-9.91-7.08-17.07c0-11.55,6.44-19.54,19.32-23.98c21.49-7.55,32.15-16.07,31.98-25.57
						c-0.11-7.22-5.69-10.83-16.74-10.83c-4.5,0-7.72,0.92-9.66,2.75c-0.61,0.56-1.83,3.11-3.66,7.66
						c-0.94,2.33-2.08,4.19-3.41,5.58c-1.22,1.39-2.69,2.25-4.41,2.58c-1.83,0.45-3.66,0.06-5.5-1.17c-1.56-1.17-2.5-2.83-2.83-5
						c-0.28-3.11,1.39-6.13,5-9.08c5.94-4.83,14.1-7.3,24.48-7.41C340.48,110.98,351.5,115.42,355.94,124.3z M320.13,153.7
						c-4.11,1.94-7.13,4.75-9.08,8.41c-1.94,3.61-2.89,7.72-2.83,12.32c0.17,4.55,1.39,8.58,3.66,12.08
						c2.39,3.5,5.86,5.22,10.41,5.16c5.55,0,9.8-2.72,12.74-8.16c3.05-5.5,4.58-12.46,4.58-20.9v-21.57
						C336.51,144.54,330.01,148.76,320.13,153.7z"/>
					<path class="st3" d="M409.99,123.38c4.94-7.94,12.08-11.91,21.4-11.91c5.66,0.06,10.74,1.36,15.24,3.91
						c3.89,2.22,5.83,5.08,5.83,8.58c0,1.89-0.6,3.57-1.79,5.04c-1.19,1.47-2.91,2.21-5.16,2.21s-4.11-0.57-5.58-1.71
						c-1.47-1.14-2.76-2.93-3.87-5.37c-1.44-3-2.94-5-4.5-6c-1.94-1.5-4.11-2.05-6.5-1.67c-3.39,0.39-6.77,3.19-10.16,8.41
						c-3.28,5.22-4.91,11.24-4.91,18.07v33.56c0,11.77,3.8,17.74,11.41,17.91v2.83h-42.64v-2.83c7.5-0.33,11.24-6.3,11.24-17.91
						v-44.97c0-9.55-3.75-13.74-11.24-12.58v-2.83l28.98-4.66C409.24,113.36,409.99,117.33,409.99,123.38z"/>
				</g>
				<g style="clip-path:url(#SVGID_00000054973375580481305410000013457299861865664680_);">
					<path class="st3" d="M337.52,222.54c3.65,1.59,5.8,3.71,6.43,6.35c0.48,1.8,0.3,3.55-0.52,5.24c-0.82,1.69-2.24,2.75-4.25,3.18
						c-2.01,0.42-3.84,0.24-5.48-0.56c-1.69-0.79-3.31-2.04-4.84-3.73c-2.22-2.43-4.16-4.05-5.8-4.84c-1.43-0.79-3.15-0.9-5.16-0.32
						c-1.8,0.37-3.52,1.62-5.16,3.73c7.15,1.91,12.44,4.98,15.88,9.21c3.86,4.45,5.8,10.11,5.8,16.99c0,7.94-3.6,14.88-10.8,20.8
						c-6.88,5.29-15.4,7.97-25.57,8.02c-7.52,0-14.08-1.43-19.69-4.29v-0.32c-2.12,1.43-3.73,3.26-4.84,5.48
						c-1.27,2.22-1.64,4.29-1.11,6.19c1.11,3.81,4.95,5.72,11.51,5.72h32.4c20.49,0,30.78,7.84,30.89,23.5
						c0,10.01-5.8,18.08-17.39,24.22c-9,4.76-19.69,7.25-32.08,7.46c-12.28,0.21-22.18-1.75-29.7-5.88
						c-3.81-2.06-6.56-4.76-8.26-8.1c-1.69-3.34-2.49-6.91-2.38-10.72c0.11-6.25,2.46-11.65,7.07-16.2
						c-2.33-2.43-3.85-4.98-4.57-7.62c-0.71-2.65-0.86-5-0.44-7.07c1.48-7.15,7.07-13.18,16.76-18.1c-3.97-2.49-7.2-5.69-9.69-9.61
						c-2.54-3.92-3.81-8.15-3.81-12.7c0-8.26,3.41-15.14,10.24-20.65c6.62-5.56,15.3-8.34,26.05-8.34c2.12-0.05,5.13,0.29,9.05,1.03
						c5.88-6.46,12.73-9.69,20.57-9.69C332.12,221.06,335.08,221.59,337.52,222.54z M261.05,329.34c-0.21,6.56,2.62,11.72,8.5,15.48
						c5.88,3.76,15.17,5.48,27.87,5.16c12.81-0.32,23.53-3.47,32.16-9.45c2.06-1.54,3.73-3.31,5-5.32c1.27-2.01,1.85-4.25,1.75-6.71
						c-0.11-2.46-1.17-4.43-3.18-5.92c-2.33-1.75-5.61-2.62-9.85-2.62h-39.15c-4.34,0-7.62-0.37-9.85-1.11
						c-2.22-0.64-4.71-1.8-7.46-3.49C263.14,319.18,261.21,323.84,261.05,329.34z M286.46,240.8c-2.86,4.98-4.29,10.96-4.29,17.95
						c0,7.31,1.51,13.21,4.53,17.71c3.12,4.61,7.04,6.91,11.75,6.91c4.5,0,8.28-2.46,11.36-7.39c3.34-4.71,5-10.77,5-18.18
						c-0.05-9.53-2.3-16.62-6.75-21.28c-2.44-2.43-5.64-3.68-9.61-3.73C293.31,232.73,289.32,235.4,286.46,240.8z"/>
					<path class="st3" d="M413.03,239.93c6.67,7.04,10.27,16.44,10.8,28.19h-57.41c-0.69,10.16,1.59,18.9,6.83,26.2
						c5.24,7.25,11.78,10.77,19.61,10.56c6.78-0.16,12.47-2.57,17.07-7.23c4.61-4.66,8.05-10.8,10.32-18.42h2.54
						c-2.17,10.64-6.75,18.98-13.74,25.01c-6.94,5.98-15.19,8.97-24.77,8.97c-10.59,0-19.61-3.97-27.08-11.91
						c-7.31-7.83-10.96-17.58-10.96-29.22c0-12.07,3.65-22.15,10.96-30.25c7.41-8.31,16.94-12.47,28.59-12.47
						C397.39,229.37,406.47,232.89,413.03,239.93z M376.82,236.44c-2.44,2.17-4.34,4.95-5.72,8.34c-1.38,3.28-2.41,6.59-3.1,9.93
						c-0.69,3.23-1.14,6.41-1.35,9.53h36.77c0.16-3.97-0.29-8.23-1.35-12.78c-0.95-4.61-2.94-8.87-5.96-12.78
						c-2.97-3.97-6.54-5.88-10.72-5.72C382.22,233.05,379.37,234.21,376.82,236.44z"/>
					<path class="st3" d="M499.83,236.75c2.01,2.01,3.52,4.29,4.53,6.83c5.66-9.21,13.74-13.79,24.22-13.74
						c7.94,0,14.16,2.3,18.66,6.91c4.39,4.45,6.67,11.17,6.83,20.17v35.1c0.05,11.12,3.73,16.75,11.04,16.91v2.7h-41.53v-2.7
						c7.46-0.16,11.2-5.8,11.2-16.91V254.3c0-4.92-1.32-9.05-3.97-12.39c-2.86-3.55-6.27-5.32-10.24-5.32
						c-3.71,0-7.04,1.77-10.01,5.32c-2.7,3.34-4.05,7.46-4.05,12.39v37.72c0,11.12,3.68,16.75,11.04,16.91v2.7h-41.21v-2.7
						c7.52-0.16,11.25-5.8,11.2-16.91V254.3c0.05-4.92-1.38-9.1-4.29-12.55c-2.81-3.44-6.17-5.16-10.08-5.16
						c-3.6,0-6.88,1.77-9.85,5.32c-2.97,3.65-4.42,7.78-4.37,12.39v37.72c0,11.12,3.73,16.75,11.2,16.91v2.7H428.6v-2.7
						c7.36-0.16,11.04-5.8,11.04-16.91v-43.2c0-9.1-3.68-13.02-11.04-11.75v-2.78l27.95-4.45c1.38,1.27,2.17,4.84,2.38,10.72
						c5.56-7.15,13-10.72,22.31-10.72C489.19,229.85,495.38,232.15,499.83,236.75z"/>
				</g>
			</g>
		</g>
	</g>
	<g>
		<g>
			<g>
				<path class="st1" d="M326.09,378.88v-19.93h-4.65v48.12h4.65v-19.92h18.3v-8.27H326.09z"/>
			</g>
			<g>
				<path class="st1" d="M316.79,387.14v19.93h4.65v-48.12h-4.65v19.92h-18.3v8.27H316.79z"/>
			</g>
		</g>
		<g>
			<g>
				<path class="st0" d="M359.79,342.09c0-5.03,1.38-8.26,4.13-9.71c2.75-1.44,5.36-2.17,7.82-2.17c2.51,0,5.12,0.71,7.82,2.13
					c2.7,1.42,4.05,4.67,4.05,9.75l0.01,29.33c0,2.3-0.63,4.52-1.89,6.66c-1.26,2.14-3.36,4.25-6.3,6.34
					c-2.35,1.71-4.92,3.34-7.7,4.9v19.82c0.16,0.91,0.41,1.52,0.76,1.85c0.35,0.32,0.55,0.51,0.6,0.56c0,0.11-0.05,0.16-0.16,0.16
					c-1.02-0.05-2.25-0.35-3.69-0.88c-1.44-0.53-2.72-1.32-3.81-2.37c-1.1-1.04-1.64-2.37-1.64-3.97L359.79,342.09z M367.74,387.22
					c2.3-1.28,4-2.5,5.1-3.65c1.1-1.15,1.82-2.39,2.17-3.73c0.35-1.34,0.52-3.1,0.52-5.3l-0.08-8.75l-0.01-29.33
					c0-1.34-0.4-2.45-1.2-3.33c-0.8-0.88-1.77-1.27-2.89-1.16c-1.02,0.05-1.87,0.54-2.57,1.44c-0.7,0.91-1.04,1.98-1.04,3.21
					L367.74,387.22z"/>
				<path class="st0" d="M406,332.06c2.83,1.23,4.25,4.23,4.25,8.99v16.81c0,4.65-1.35,7.62-4.05,8.91
					c-2.7,1.28-5.31,1.93-7.82,1.93c-2.41,0-4.99-0.67-7.74-2.01c-2.76-1.34-4.13-4.28-4.13-8.83v-16.81c0-4.55,1.32-7.49,3.97-8.83
					c2.65-1.34,5.23-2.01,7.74-2.01C400.57,330.21,403.16,330.83,406,332.06z M402.31,336.07c0-1.12-0.37-2.11-1.12-2.97
					c-0.75-0.86-1.63-1.28-2.65-1.28c-1.07,0-1.98,0.4-2.73,1.2c-0.75,0.8-1.12,1.77-1.12,2.89l-0.24,26.93
					c0,1.18,0.37,2.18,1.12,3.01c0.75,0.83,1.63,1.24,2.65,1.24c1.07,0,1.99-0.39,2.77-1.16c0.77-0.77,1.16-1.75,1.16-2.93
					L402.31,336.07z"/>
				<path class="st0" d="M403.26,402.29c0,0,0.01,0,0.01-0.01c0.01-0.02,0.02-0.05,0.03-0.07
					C403.28,402.23,403.27,402.26,403.26,402.29z"/>
				<path class="st0" d="M410.25,397.95c-3.42,0.59-5.64,1.82-6.66,3.69c-0.04,0.08-0.08,0.15-0.12,0.24
					c-0.02,0.03-0.04,0.06-0.05,0.09c-0.03,0.06-0.06,0.12-0.09,0.18c-0.01,0.02-0.02,0.04-0.03,0.06
					c-0.01,0.02-0.02,0.05-0.03,0.07c-0.33,0.82-0.42,1.95-0.62,2.89c-0.23,1.11-0.77,2.66-0.77,2.66c-0.17,0.58-0.49,1.1-0.95,1.57
					c-0.75,0.78-1.66,1.17-2.73,1.17c-1.02,0-1.9-0.41-2.65-1.25c-0.75-0.83-1.12-1.78-1.12-2.85v-7.48c0,0.22,1.46-0.32,4.37-1.6
					c2.91-1.28,5.55-3.15,7.9-5.58c2.36-2.43,3.53-5.46,3.53-9.11v-1.25c0-2.73-0.71-4.86-2.13-6.38c-1.42-1.52-3.03-2.57-4.85-3.13
					c-1.82-0.57-3.45-0.85-4.9-0.85c-2.46,0-5.06,0.63-7.78,1.89c-2.73,1.26-4.09,4.08-4.09,8.47v18.03c0,3.91,0.83,6.92,2.49,9.03
					c1.66,2.12,4.79,3.17,9.39,3.17c3.14,0,5.6-0.49,7.36-1.48c2.9-1.07,3.89-5.21,4.27-5.84c0.17-0.79,0.25-1.74,0.25-2.98v-1.12
					c0-0.8,0.3-1.42,0.88-1.84l0.72-0.64L410.25,397.95z M394.44,376.72c0-1.07,0.37-2.02,1.12-2.85c0.75-0.83,1.63-1.24,2.65-1.24
					c1.07,0,1.98,0.39,2.73,1.16c0.75,0.78,1.12,1.7,1.12,2.77v5.93c0,3.53-0.35,5.26-1.04,7.32c-0.69,2.06-1.58,3.57-2.65,4.53
					c-1.07,0.96-2.41,1.77-4.01,2.41L394.44,376.72z"/>
				<path class="st0" d="M439.11,389.74l-0.72,0.56c-0.59,0.43-0.88,0.99-0.88,1.69v12.44c0,0.8-0.28,1.73-0.84,2.77
					c-0.56,1.04-1.59,1.99-3.09,2.85c-1.5,0.86-3.53,1.45-6.1,1.61l0,0h-1.36h-0.48h-0.48h-0.24c-2.84-0.16-5.38-0.8-7.62-1.93
					c-2.25-1.12-3.37-3.1-3.37-5.94v-64.63c0-1.98,0.55-3.64,1.64-4.98c1.1-1.34,2.37-2.33,3.81-2.97c1.44-0.64,2.67-1.02,3.69-1.12
					c0.05,0,0.09,0.03,0.12,0.08c0.03,0.05,0.01,0.11-0.04,0.16c-0.05,0.05-0.2,0.24-0.44,0.56c-0.24,0.32-0.44,0.76-0.6,1.32
					c-0.16,0.56-0.24,1.24-0.24,2.05l-0.08,15.98c0.69-0.16,1.28-0.24,1.77-0.24h4.89c0.53,0,1.04-0.19,1.52-0.56l0.4-0.48
					c0,0.27-0.05,0.62-0.16,1.04c-0.43,2.03-1.32,3.42-2.69,4.17c-1.36,0.75-2.53,1.12-3.49,1.12h-2.25v52.1
					c0,0.91,0.37,1.67,1.12,2.29c0.75,0.62,1.63,0.92,2.65,0.92c0.37,0,0.77-0.05,1.2-0.16c0.43-0.16,0.83-0.35,1.2-0.56
					c0.91-0.75,1.36-1.63,1.36-2.65v-10.28c0.11-1.23,0.71-2.59,1.81-4.09c1.1-1.5,3.22-2.49,6.38-2.97
					C437.82,389.9,438.36,389.85,439.11,389.74z"/>
				<path class="st0" d="M467.08,351.48l-0.64,0.56c-0.59,0.48-0.88,1.12-0.88,1.93l-0.24,3.1c0,1.87-0.48,7.36-1.44,8.94
					c-0.96,1.58-2.27,2.82-3.93,3.73c-1.66,0.91-3.45,1.36-5.38,1.36h-1.69c-1.93,0-3.72-0.47-5.38-1.4
					c-1.66-0.94-2.97-2.19-3.93-3.77c-0.96-1.58-1.44-3.3-1.44-5.18v-20.26c0-1.87,0.48-3.61,1.44-5.22
					c0.96-1.61,2.27-2.86,3.93-3.77c1.66-0.91,3.45-1.36,5.38-1.36h1.69c1.93,0,3.72,0.46,5.38,1.36c1.66,0.91,2.97,2.17,3.93,3.77
					c0.96,1.6,1.44,3.34,1.44,5.22l0.24,5.19c0,0.86,0.29,1.5,0.88,1.93l0.64,0.64l-1.52-0.16c-3.42-0.59-5.64-1.82-6.66-3.69
					c-1.02-1.87-1.52-3.37-1.52-4.49v-5.19c0-1.02-0.36-1.87-1.08-2.57c-0.72-0.69-1.62-1.04-2.69-1.04c-1.07,0-1.97,0.35-2.69,1.04
					c-0.72,0.7-1.08,1.55-1.08,2.57v31.81c0,0.96,0.37,1.79,1.12,2.49c0.75,0.7,1.63,1.04,2.65,1.04c1.02,0,1.9-0.35,2.65-1.04
					c0.75-0.69,1.12-1.52,1.12-2.49v-2.94c0-1.18,0.51-6.45,1.52-8.3c1.02-1.85,3.24-3.06,6.66-3.65
					C466.2,351.53,466.7,351.48,467.08,351.48z"/>
				<path class="st0" d="M467.45,403.31c0,4.55-1.48,7.41-4.45,8.59c-2.97,1.18-5.66,1.77-8.06,1.77c-2.62,0-5.31-0.64-8.06-1.93
					c-2.76-1.28-4.13-4.09-4.13-8.43v-0.93c0-2.03,0.65-3.97,1.97-5.82c1.31-1.85,3.49-3.68,6.54-5.5c2.62-1.5,5.27-2.89,7.94-4.17
					v-8.97c0-1.07-0.36-2.01-1.08-2.81c-0.72-0.8-1.59-1.23-2.61-1.28c-1.18-0.05-2.18,0.31-3.01,1.08
					c-0.83,0.78-1.24,1.72-1.24,2.85v3.39c0,1.12-0.54,4.02-1.6,5.86c-1.07,1.85-3.37,3.06-6.9,3.65l-1.6,0.24l0.72-0.64
					c0.59-0.48,0.88-1.12,0.88-1.93v-4.85c0-3.85,0.86-5.42,2.57-7.54c1.71-2.11,4.98-3.17,9.79-3.17s8.08,1.06,9.79,3.17
					c1.71,2.11,2.57,3.68,2.57,7.54V403.31z M459.19,388.66c-2.35,1.12-4.09,2.18-5.22,3.17c-1.12,0.99-1.87,2.07-2.25,3.25
					c-0.37,1.18-0.56,2.76-0.56,4.73l0.08-1.47v9.87c0,1.07,0.39,1.99,1.16,2.77c0.77,0.78,1.7,1.16,2.77,1.16
					c1.12,0,2.07-0.4,2.85-1.2c0.77-0.8,1.16-1.77,1.16-2.89V388.66z"/>
				<path class="st0" d="M488.1,378.72c-1.07-1.74-1.6-3.12-1.6-4.13v-8.35c0-1.02-0.39-1.87-1.16-2.57
					c-0.78-0.69-1.7-1.04-2.77-1.04c-1.12,0-2.09,0.38-2.89,1.12c-0.8,0.75-1.2,1.63-1.2,2.65v14.92c3.37,1.5,6.04,2.81,8.02,3.93
					c3.1,1.66,5.31,3.34,6.62,5.06c1.31,1.71,1.97,3.5,1.97,5.38v8.43c0,4.12-1.42,6.74-4.25,7.86c-2.84,1.12-5.56,1.69-8.18,1.69
					c-2.57,0-5.3-0.59-8.18-1.77c-2.89-1.18-4.33-3.77-4.33-7.78v-17.33c0-0.27-0.15-0.59-0.44-0.96c-0.29-0.37-0.58-0.67-0.84-0.88
					c-0.05-0.05-0.05-0.11,0-0.16c0.05-0.05,0.11-0.08,0.16-0.08l1.12,0.16c2.03,0.32,3.93,1.08,5.7,2.29
					c1.77,1.2,2.65,3.09,2.65,5.66v15.73c0,0.96,0.37,1.8,1.12,2.53c0.75,0.72,1.66,1.14,2.73,1.24h0.16c1.07,0,2.01-0.35,2.81-1.04
					c0.8-0.69,1.2-1.55,1.2-2.57l0.08-6.1c0-4.98-0.54-9.13-1.6-12.48c-1.07-3.34-3.24-5.71-6.5-7.1c-0.86-0.37-2.13-0.99-3.81-1.85
					c-1.69-0.86-3.2-1.63-4.53-2.33v-6.02c0-3.58,0.87-6.35,2.61-8.3c1.74-1.95,5.04-2.93,9.91-2.93c4.81,0,8.09,0.98,9.83,2.93
					c1.74,1.95,2.61,4.72,2.61,8.3v7.14c0,0.75,0.32,1.34,0.96,1.77l0.72,0.56c-0.37,0-0.94-0.05-1.69-0.16
					C491.49,381.6,489.17,380.46,488.1,378.72z"/>
				<path class="st0" d="M405.3,372.16c0,0,0.31-1.21,0.89-2.28c1.47-2.69,2.65-3.96,2.65-3.96l3.01,2.91c0,0-2.83,2.24-4.99,4.11
					L405.3,372.16z"/>
				<g>
					<path class="st0" d="M437.76,349.64c-1.07-0.67-2.36-1-3.85-1c-0.59,0-1.08,0.03-1.49,0.08c-0.4,0.06-0.66,0.11-0.76,0.16
						l0.08,35.65c0,0.64-0.08,1.19-0.24,1.64s-0.36,0.79-0.6,1c-0.24,0.21-0.39,0.35-0.44,0.4c-0.06,0.05-0.07,0.09-0.04,0.12
						c0.03,0.03,0.07,0.04,0.12,0.04c5.83,0.27,8.75-1.5,8.75-5.29l0.08-29.23C439.36,351.51,438.83,350.32,437.76,349.64z"/>
					<circle class="st0" cx="435.2" cy="342.16" r="4.51"/>
				</g>
			</g>
			<g>
				<path class="st1" d="M486.94,331.72c2.22,0,4.14,0.68,5.75,2.03c1.59,1.35,2.38,2.99,2.38,4.9c0,1.71-0.64,3.2-1.92,4.48
					c-1.25,1.25-2.86,2.03-4.83,2.32c1.51,0.09,2.67,0.93,3.48,2.54l2.53,5.05c1.57,3.18,3.4,4.77,5.49,4.77v0.74h-9.16
					c0.05-1.14-0.4-2.77-1.35-4.87l-2.34-5.25c-0.41-0.86-1.01-1.56-1.83-2.1c-0.75-0.5-1.75-0.76-2.99-0.76h-0.74v8.9
					c-0.01,2.22,1.1,3.34,3.34,3.34v0.74h-11.41v-0.74c2.22,0.01,3.34-1.1,3.34-3.34v-18.64c0.01-2.25-1.1-3.37-3.34-3.37v-0.76
					H486.94z M481.43,344.77h1.73c2.06,0,3.75-0.58,5.05-1.74c1.3-1.16,1.95-2.61,1.95-4.34c0-1.74-0.65-3.2-1.95-4.36
					c-1.3-1.16-2.99-1.74-5.05-1.74h-1.73V344.77z"/>
				<path class="st1" d="M514.6,341.92c1.55,1.63,2.38,3.82,2.51,6.54h-13.33c-0.16,2.36,0.37,4.39,1.59,6.08
					c1.22,1.68,2.73,2.5,4.55,2.45c1.57-0.04,2.89-0.6,3.96-1.68c1.07-1.08,1.87-2.51,2.4-4.28h0.59c-0.5,2.47-1.57,4.41-3.19,5.81
					c-1.61,1.39-3.53,2.08-5.75,2.08c-2.46,0-4.55-0.92-6.29-2.77c-1.7-1.82-2.54-4.08-2.54-6.78c0-2.8,0.85-5.14,2.54-7.02
					c1.72-1.93,3.93-2.89,6.64-2.89C510.96,339.46,513.07,340.28,514.6,341.92z M506.19,341.1c-0.57,0.5-1.01,1.15-1.33,1.94
					c-0.32,0.76-0.56,1.53-0.72,2.3c-0.16,0.75-0.26,1.49-0.31,2.21h8.54c0.04-0.92-0.07-1.91-0.31-2.97
					c-0.22-1.07-0.68-2.06-1.38-2.97c-0.69-0.92-1.52-1.36-2.49-1.33C507.44,340.32,506.78,340.59,506.19,341.1z"/>
				<path class="st1" d="M525.1,340v0.65c-1.68-0.02-1.98,1.29-0.9,3.95l3.52,8.54l4.17-8.54c1.28-2.61,0.89-3.92-1.16-3.95V340
					h6.47v0.65c-1.62,0.01-3.06,1.33-4.31,3.95l-6.67,13.97h-0.87l-6.21-13.97c-1.16-2.62-2.32-3.93-3.5-3.95V340H525.1z"/>
				<path class="st1" d="M551.23,341.92c1.55,1.63,2.38,3.82,2.51,6.54h-13.33c-0.16,2.36,0.37,4.39,1.59,6.08
					c1.22,1.68,2.73,2.5,4.55,2.45c1.57-0.04,2.89-0.6,3.96-1.68c1.07-1.08,1.87-2.51,2.4-4.28h0.59c-0.5,2.47-1.57,4.41-3.19,5.81
					c-1.61,1.39-3.53,2.08-5.75,2.08c-2.46,0-4.55-0.92-6.29-2.77c-1.7-1.82-2.54-4.08-2.54-6.78c0-2.8,0.85-5.14,2.54-7.02
					c1.72-1.93,3.93-2.89,6.64-2.89C547.6,339.46,549.7,340.28,551.23,341.92z M542.82,341.1c-0.57,0.5-1.01,1.15-1.33,1.94
					c-0.32,0.76-0.56,1.53-0.72,2.3c-0.16,0.75-0.26,1.49-0.31,2.21H549c0.04-0.92-0.07-1.91-0.31-2.97
					c-0.22-1.07-0.68-2.06-1.38-2.97c-0.69-0.92-1.52-1.36-2.49-1.33C544.08,340.32,543.41,340.59,542.82,341.1z"/>
				<path class="st1" d="M505.87,385.61c0,2.59,0.86,3.91,2.59,3.94v0.63h-9.74v-0.63c1.78-0.04,2.67-1.35,2.67-3.94v-18.99
					c0.04-2.13-0.85-3.04-2.67-2.7v-0.67l7.14-1.07v8.87V385.61z"/>
				<path class="st1" d="M524.6,373.97c0.52,1.01,0.77,2.34,0.76,4v9.29c0,1.15,0.31,1.81,0.93,2c0.7,0.15,1.55-0.1,2.54-0.74
					l0.3,0.57c-1.38,0.93-2.73,1.39-4.05,1.39c-2.49,0-3.81-0.92-3.96-2.76c-0.48,0.78-1.25,1.46-2.3,2.05
					c-1.01,0.57-2.23,0.85-3.66,0.83c-1.59-0.06-2.92-0.56-4-1.48c-1.05-0.94-1.57-2.2-1.57-3.79c0-2.57,1.43-4.34,4.29-5.33
					c4.78-1.68,7.14-3.57,7.11-5.68c-0.02-1.6-1.27-2.41-3.72-2.41c-1,0-1.72,0.2-2.15,0.61c-0.14,0.12-0.41,0.69-0.81,1.7
					c-0.21,0.52-0.46,0.93-0.76,1.24c-0.27,0.31-0.6,0.5-0.98,0.57c-0.41,0.1-0.81,0.01-1.22-0.26c-0.35-0.26-0.56-0.63-0.63-1.11
					c-0.06-0.69,0.31-1.36,1.11-2.02c1.32-1.07,3.13-1.62,5.44-1.65C521.16,371.01,523.61,371.99,524.6,373.97z M516.64,380.5
					c-0.91,0.43-1.59,1.06-2.02,1.87c-0.43,0.8-0.64,1.71-0.63,2.74c0.04,1.01,0.31,1.91,0.81,2.68c0.53,0.78,1.3,1.16,2.31,1.15
					c1.23,0,2.18-0.6,2.83-1.81c0.68-1.22,1.02-2.77,1.02-4.65v-4.79C520.28,378.47,518.84,379.4,516.64,380.5z"/>
				<path class="st1" d="M543.26,388.41c-1.76,1.46-3.63,2.18-5.61,2.18c-2.42,0-4.36-0.84-5.81-2.52c-1.44-1.68-2.17-4-2.17-6.98
					c0-2.99,0.79-5.39,2.37-7.22c1.54-1.84,3.48-2.76,5.81-2.76c2.04,0.05,3.84,0.67,5.4,1.85v-6.35c0-2.13-0.85-3.04-2.55-2.7
					v-0.67l6.96-1.11v23.58c0.01,2.11,0.91,3.02,2.68,2.72v0.63l-6.4,1.55C543.57,390.26,543.34,389.52,543.26,388.41z
					 M535.41,374.69c-0.86,1.49-1.3,3.49-1.3,5.98c-0.01,2.52,0.47,4.6,1.46,6.24c1.01,1.67,2.26,2.46,3.74,2.39
					c0.94-0.07,1.83-0.53,2.68-1.37c0.84-0.91,1.26-2.06,1.26-3.44v-9.92c-0.42-0.54-1.01-1.03-1.78-1.46
					c-0.78-0.44-1.56-0.67-2.35-0.67C537.55,372.42,536.31,373.17,535.41,374.69z"/>
				<path class="st1" d="M566.49,373.97c0.52,1.01,0.77,2.34,0.76,4v9.29c0,1.15,0.31,1.81,0.93,2c0.7,0.15,1.55-0.1,2.54-0.74
					l0.3,0.57c-1.38,0.93-2.73,1.39-4.05,1.39c-2.49,0-3.81-0.92-3.96-2.76c-0.48,0.78-1.25,1.46-2.3,2.05
					c-1.01,0.57-2.23,0.85-3.66,0.83c-1.59-0.06-2.92-0.56-4-1.48c-1.05-0.94-1.57-2.2-1.57-3.79c0-2.57,1.43-4.34,4.29-5.33
					c4.78-1.68,7.14-3.57,7.11-5.68c-0.02-1.6-1.27-2.41-3.72-2.41c-1,0-1.72,0.2-2.15,0.61c-0.14,0.12-0.41,0.69-0.81,1.7
					c-0.21,0.52-0.46,0.93-0.76,1.24c-0.27,0.31-0.6,0.5-0.98,0.57c-0.41,0.1-0.81,0.01-1.22-0.26c-0.35-0.26-0.56-0.63-0.63-1.11
					c-0.06-0.69,0.31-1.36,1.11-2.02c1.32-1.07,3.13-1.62,5.44-1.65C563.05,371.01,565.5,371.99,566.49,373.97z M558.53,380.5
					c-0.91,0.43-1.59,1.06-2.02,1.87c-0.43,0.8-0.64,1.71-0.63,2.74c0.04,1.01,0.31,1.91,0.81,2.68c0.53,0.78,1.3,1.16,2.31,1.15
					c1.23,0,2.18-0.6,2.83-1.81c0.68-1.22,1.02-2.77,1.02-4.65v-4.79C562.17,378.47,560.72,379.4,558.53,380.5z"/>
				<path class="st1" d="M580.55,371.54c0.79,0.32,1.32,0.44,1.59,0.37c0.28-0.07,0.41-0.26,0.37-0.56h0.63l0.59,5.55h-0.59
					c-0.23-1.54-0.86-2.76-1.89-3.66c-0.4-0.39-0.93-0.7-1.61-0.93c-0.56-0.22-1.17-0.33-1.85-0.31c-0.94-0.01-1.73,0.26-2.39,0.81
					c-0.52,0.42-0.81,0.99-0.89,1.7c-0.05,0.67,0.17,1.26,0.67,1.78c0.42,0.41,1.54,0.96,3.35,1.65c1.69,0.57,2.89,1.06,3.59,1.48
					c1.93,1.17,2.84,2.88,2.74,5.11c-0.09,1.72-0.73,3.19-1.94,4.42c-1.23,1.22-2.96,1.72-5.16,1.5c-0.84-0.1-1.6-0.27-2.28-0.5
					c-1.49-0.56-2.4-0.77-2.72-0.65c-0.31,0.11-0.47,0.4-0.48,0.87h-0.61l-0.11-5.92h0.59c0.09,0.65,0.23,1.23,0.43,1.72
					c0.2,0.46,0.57,0.94,1.11,1.46c1.15,1.07,2.52,1.73,4.11,1.98c1.39,0.2,2.52,0.02,3.37-0.54c0.78-0.52,1.19-1.2,1.24-2.04
					c0.11-0.83-0.07-1.54-0.56-2.15c-0.35-0.42-0.9-0.8-1.67-1.13c-1.02-0.44-1.96-0.8-2.79-1.06c-1.07-0.39-1.86-0.7-2.37-0.91
					c-2.23-1.11-3.33-2.84-3.28-5.18c0.05-1.54,0.58-2.83,1.59-3.85c1.09-1.04,2.56-1.55,4.42-1.54
					C578.7,371.04,579.63,371.21,580.55,371.54z"/>
			</g>
		</g>
	</g>
</g>
</svg>
